#define close_hover_width 10
#define close_hover_height 10
static unsigned char close_hover_bits[] = {
   0x33, 0x03, 0xb7, 0x03, 0xce, 0x01, 0xfc, 0x00, 0x7b, 0x03, 0x7b, 0x03,
   0xfc, 0x00, 0xce, 0x01, 0xb7, 0x03, 0x33, 0x03 };
