#define max_hover_width 10
#define max_hover_height 10
static unsigned char max_hover_bits[] = {
   0xff, 0x03, 0xff, 0x03, 0xff, 0x03, 0x87, 0x03, 0xb7, 0x03, 0xb7, 0x03,
   0x87, 0x03, 0xff, 0x03, 0xff, 0x03, 0xff, 0x03 };
